<svg width="328.02496337890625px" height="120.8px" xmlns="http://www.w3.org/2000/svg" viewBox="85.98751831054688 14.600000000000001 328.02496337890625 120.8" style="background: rgba(0, 0, 0, 0);" preserveAspectRatio="xMidYMid"><defs><filter id="editing-extrusion" x="-100%" y="-100%" width="300%" height="300%"><feFlood result="color1" flood-color="#444"></feFlood><feConvolveMatrix order="8,8" divisor="1" kernelMatrix="1 0 0 0 0 0 0 0 0 1 0 0 0 0 0 0 0 0 1 0 0 0 0 0 0 0 0 1 0 0 0 0 0 0 0 0 1 0 0 0 0 0 0 0 0 1 0 0 0 0 0 0 0 0 1 0 0 0 0 0 0 0 0 1" in="SourceAlpha" result="extrude"></feConvolveMatrix><feComposite in="color1" in2="extrude" result="comp-extrude" operator="in"></feComposite><feOffset dx="4" dy="4" in="comp-extrude" result="offset-extrude"></feOffset><feMerge><feMergeNode in="offset-extrude"></feMergeNode><feMergeNode in="SourceGraphic"></feMergeNode></feMerge></filter></defs><g filter="url(#editing-extrusion)"><g transform="translate(136.72003412246704, 97.39999961853027)"><path d="M2.69-39.68L2.69-39.68L2.69-39.68Q4.54-43.52 9.70-43.52L9.70-43.52L9.70-43.52Q14.85-43.52 17.25-40.54L17.25-40.54L17.25-40.54Q19.65-37.57 19.65-30.72L19.65-30.72L19.65-7.87L35.20-42.18L42.82-42.18L22.91 0L7.94 0L6.02-30.72L6.02-30.72Q5.82-34.11 4.90-36.42L4.90-36.42L4.90-36.42Q3.97-38.72 2.69-39.68ZM53.50 0L39.55 0L47.68-42.24L61.76-42.24L53.50 0ZM104.70-26.56L104.70-26.56L104.70-26.56Q104.70 0.70 75.14 0.70L75.14 0.70L75.14 0.70Q70.40 0.70 62.59-0.45L62.59-0.45L69.76-38.27L69.76-38.27Q70.27-40.83 70.59-42.30L70.59-42.30L70.59-42.30Q80.32-43.01 84.64-43.01L84.64-43.01L84.64-43.01Q88.96-43.01 92.93-42.11L92.93-42.11L92.93-42.11Q96.90-41.22 99.52-39.23L99.52-39.23L99.52-39.23Q104.70-35.33 104.70-26.56ZM91.52-28.93L91.52-28.93L91.52-28.93Q91.52-38.46 84.67-38.46L84.67-38.46L84.03-38.46L84.03-38.46Q83.71-38.46 83.39-38.40L83.39-38.40L76.80-4.03L76.80-4.03Q77.06-3.90 77.31-3.90L77.31-3.90L77.82-3.90L77.82-3.90Q80.19-3.90 82.66-5.38L82.66-5.38L82.66-5.38Q85.12-6.85 87.04-9.86L87.04-9.86L87.04-9.86Q91.52-16.83 91.52-28.93ZM131.84-4.80L131.84-4.80L131.84-4.80Q131.84-9.28 133.63-18.24L133.63-18.24L124.16-18.24L120.64 0L107.26 0L115.39-42.24L128.90-42.24L125.18-23.36L134.66-23.36L138.18-42.24L151.68-42.24L151.68-42.24Q150.78-37.50 149.63-32.19L149.63-32.19L147.46-21.76L147.46-21.76Q145.02-9.60 145.02-4.29L145.02-4.29L145.02-4.29Q145.02-2.11 145.73-0.90L145.73-0.90L145.73-0.90Q142.53 1.28 138.78 1.28L138.78 1.28L138.78 1.28Q135.04 1.28 133.44-0.51L133.44-0.51L133.44-0.51Q131.84-2.30 131.84-4.80ZM159.30 0L163.01-18.82L163.01-18.82Q161.15-36.16 154.62-39.87L154.62-39.87L154.62-39.87Q155.97-41.54 158.14-42.46L158.14-42.46L158.14-42.46Q160.32-43.39 162.94-43.39L162.94-43.39L162.94-43.39Q165.57-43.39 167.55-42.46L167.55-42.46L167.55-42.46Q169.54-41.54 170.82-39.55L170.82-39.55L170.82-39.55Q173.25-35.78 173.25-26.75L173.25-26.75L173.25-22.14L173.25-22.14Q177.09-33.41 180.93-38.27L180.93-38.27L180.93-38.27Q184.83-43.26 189.70-43.26L189.70-43.26L189.70-43.26Q191.62-43.26 192.90-42.27L192.90-42.27L192.90-42.27Q194.18-41.28 194.82-39.81L194.82-39.81L194.82-39.81Q189.89-37.63 185.15-31.36L185.15-31.36L185.15-31.36Q180.42-25.09 177.34-16.32L177.34-16.32L173.57 0L159.30 0ZM216.83 1.28L216.83 1.28L216.83 1.28Q208.64 1.28 207.87-10.37L207.87-10.37L196.86-10.37L196.86-10.37Q195.58-7.42 194.69-4.86L194.69-4.86L193.02 0L184.06 0L204.22-42.24L217.98-42.24L220.67-11.14L220.67-11.14Q221.31-4.42 223.87-2.43L223.87-2.43L223.87-2.43Q222.02 1.28 216.83 1.28ZM202.37-23.17L198.85-15.04L207.68-15.04L206.91-31.49L206.91-33.22L202.37-23.17Z" fill="#ccc"></path></g></g><style>text {
  font-size: 64px;
  font-family: Arial Black;
  dominant-baseline: central;
  text-anchor: middle;
}</style></svg>